<?xml version="1.0" standalone="no"?>
<!DOCTYPE svg PUBLIC "-//W3C//DTD SVG 20010904//EN"
 "http://www.w3.org/TR/2001/REC-SVG-20010904/DTD/svg10.dtd">
<svg version="1.0" xmlns="http://www.w3.org/2000/svg"
 width="512.000000pt" height="512.000000pt" viewBox="0 0 512.000000 512.000000"
 preserveAspectRatio="xMidYMid meet">
<metadata>
Created by potrace 1.14, written by Peter Selinger 2001-2017
</metadata>
<g transform="translate(0.000000,512.000000) scale(0.100000,-0.100000)"
fill="#000000" stroke="none">
<path d="M2327 5110 c-492 -52 -928 -221 -1314 -511 -119 -90 -320 -283 -425
-409 -290 -347 -487 -789 -560 -1255 -31 -201 -31 -549 0 -750 44 -280 118
-512 243 -764 136 -274 291 -484 521 -707 383 -370 854 -602 1393 -686 201
-31 549 -31 750 0 539 84 1010 316 1393 686 230 223 385 433 521 707 125 252
199 484 243 764 31 201 31 549 0 750 -59 375 -198 738 -400 1040 -404 604
-1039 1008 -1755 1116 -153 23 -474 33 -610 19z m51 -1061 c-77 -60 -146 -128
-174 -171 -100 -156 -211 -651 -269 -1198 -8 -80 -18 -167 -21 -194 l-5 -49
71 64 c163 145 294 234 472 319 245 116 434 152 616 114 249 -51 459 -201 590
-420 63 -107 76 -171 75 -389 -2 -449 -141 -787 -388 -944 -98 -62 -162 -76
-345 -76 -187 1 -324 22 -478 76 -112 40 -270 118 -346 173 -60 43 -165 147
-218 216 l-27 35 0 -90 c-1 -171 33 -288 109 -386 l31 -38 -113 0 c-147 0
-389 -32 -502 -67 -16 -5 -18 -2 -13 17 11 46 37 276 52 469 47 608 62 1128
46 1547 -21 522 -64 841 -132 975 l-21 41 34 -7 c273 -56 538 -55 863 3 154
28 155 28 93 -20z"/>
<path d="M2740 2660 c-206 -56 -465 -226 -712 -469 l-88 -86 0 -55 c0 -45 6
-65 36 -115 106 -175 273 -331 430 -400 112 -49 205 -67 328 -63 99 3 118 7
176 34 36 17 83 46 105 65 83 73 172 244 212 407 21 85 23 286 4 362 -63 255
-259 383 -491 320z"/>
</g>
</svg>
